<?xml version="1.0" standalone="no"?>
<!DOCTYPE svg PUBLIC "-//W3C//DTD SVG 20010904//EN"
 "http://www.w3.org/TR/2001/REC-SVG-20010904/DTD/svg10.dtd">
<svg version="1.0" xmlns="http://www.w3.org/2000/svg"
 width="512.000000pt" height="512.000000pt" viewBox="0 0 512.000000 512.000000"
 preserveAspectRatio="xMidYMid meet">
<metadata>
Created by potrace 1.11, written by Peter Selinger 2001-2013
</metadata>
<g transform="translate(0.000000,512.000000) scale(0.100000,-0.100000)"
fill="#000000" stroke="none">
<path d="M2420 3664 c0 -4 16 -33 36 -66 20 -32 34 -65 31 -72 -3 -8 -31 -16
-74 -21 -338 -34 -639 -179 -883 -424 -257 -259 -406 -581 -427 -923 l-6 -98
1463 0 1463 0 -7 93 c-15 198 -67 382 -158 560 -227 443 -650 731 -1155 788
-120 14 -123 19 -73 101 17 26 30 53 30 58 0 6 -48 10 -120 10 -66 0 -120 -3
-120 -6z m-347 -536 c-202 -242 -371 -517 -433 -702 l-22 -66 -85 0 -85 0 7
37 c12 66 76 212 131 299 94 150 198 267 339 380 68 54 207 145 213 139 2 -2
-27 -41 -65 -87z"/>
<path d="M3585 3280 c17 -19 30 -20 367 -20 327 0 349 1 346 18 -3 16 -30 17
-367 20 l-364 2 18 -20z"/>
<path d="M3960 2856 c0 -32 26 -37 181 -34 146 3 154 4 154 23 0 19 -8 20
-167 23 -139 2 -168 0 -168 -12z"/>
<path d="M4142 2393 c3 -15 15 -18 78 -18 63 0 75 3 78 18 3 15 -6 17 -78 17
-72 0 -81 -2 -78 -17z"/>
<path d="M855 2040 c-2 -3 48 -27 111 -54 65 -27 114 -53 114 -61 0 -7 12 -23
26 -34 24 -19 40 -21 149 -21 l122 0 31 39 c20 25 58 52 99 73 60 29 77 33
148 33 71 0 88 -4 148 -33 41 -21 79 -48 99 -73 l31 -39 610 0 610 0 33 38
c18 21 61 54 96 73 58 31 70 34 148 34 104 0 176 -29 243 -99 l44 -46 130 0
c72 0 138 3 147 6 9 3 24 20 35 37 16 25 43 42 125 77 58 24 104 45 102 47 -5
6 -3398 8 -3401 3z"/>
<path d="M1563 1976 c-57 -18 -122 -68 -156 -118 -105 -157 -51 -355 118 -439
58 -28 71 -31 142 -28 121 6 206 60 261 164 23 43 27 62 27 135 0 93 -16 136
-76 204 -67 77 -215 115 -316 82z m139 -116 c77 -22 130 -90 131 -170 2 -117
-117 -207 -227 -170 -170 56 -167 289 4 338 46 13 49 14 92 2z"/>
<path d="M1594 1821 c-141 -64 -92 -281 64 -281 63 0 133 57 147 120 14 62
-29 139 -94 166 -44 18 -67 17 -117 -5z m137 -60 c76 -76 -4 -205 -106 -171
-40 13 -75 59 -75 98 0 31 28 78 54 91 43 20 96 13 127 -18z"/>
<path d="M1645 1730 c3 -5 10 -10 16 -10 5 0 9 5 9 10 0 6 -7 10 -16 10 -8 0
-12 -4 -9 -10z"/>
<path d="M1605 1700 c4 -6 11 -8 16 -5 14 9 11 15 -7 15 -8 0 -12 -5 -9 -10z"/>
<path d="M1690 1700 c0 -5 5 -10 10 -10 6 0 10 5 10 10 0 6 -4 10 -10 10 -5 0
-10 -4 -10 -10z"/>
<path d="M1620 1650 c0 -5 5 -10 10 -10 6 0 10 5 10 10 0 6 -4 10 -10 10 -5 0
-10 -4 -10 -10z"/>
<path d="M1670 1650 c0 -5 5 -10 10 -10 6 0 10 5 10 10 0 6 -4 10 -10 10 -5 0
-10 -4 -10 -10z"/>
<path d="M3324 1969 c-67 -25 -123 -75 -159 -140 -27 -48 -30 -63 -30 -139 0
-98 22 -154 84 -214 60 -57 116 -80 204 -85 71 -3 84 0 142 28 109 54 168 147
169 266 1 213 -212 361 -410 284z m208 -135 c113 -73 98 -248 -26 -305 -72
-33 -142 -20 -198 37 -150 149 46 383 224 268z"/>
<path d="M3392 1833 c-36 -7 -89 -64 -101 -109 -32 -121 96 -223 209 -166 109
54 107 213 -3 262 -41 19 -60 22 -105 13z m104 -61 c65 -52 53 -147 -23 -178
-64 -27 -143 21 -143 88 0 35 24 83 47 97 28 16 96 12 119 -7z"/>
<path d="M3420 1730 c0 -5 5 -10 10 -10 6 0 10 5 10 10 0 6 -4 10 -10 10 -5 0
-10 -4 -10 -10z"/>
<path d="M3380 1700 c0 -5 5 -10 10 -10 6 0 10 5 10 10 0 6 -4 10 -10 10 -5 0
-10 -4 -10 -10z"/>
<path d="M3465 1700 c4 -6 11 -8 16 -5 14 9 11 15 -7 15 -8 0 -12 -5 -9 -10z"/>
<path d="M3400 1654 c0 -8 5 -12 10 -9 6 4 8 11 5 16 -9 14 -15 11 -15 -7z"/>
<path d="M3450 1650 c0 -5 5 -10 10 -10 6 0 10 5 10 10 0 6 -4 10 -10 10 -5 0
-10 -4 -10 -10z"/>
</g>
</svg>
