<?xml version="1.0" encoding="utf-8"?>
<!-- Generator: Adobe Illustrator 18.0.0, SVG Export Plug-In . SVG Version: 6.00 Build 0)  -->
<!DOCTYPE svg PUBLIC "-//W3C//DTD SVG 1.1//EN" "http://www.w3.org/Graphics/SVG/1.1/DTD/svg11.dtd">
<svg version="1.1" id="hgcfdghg" xmlns="http://www.w3.org/2000/svg" xmlns:xlink="http://www.w3.org/1999/xlink" x="0px" y="0px"
	 viewBox="84 2213.7 850.4 850.4" enable-background="new 84 2213.7 850.4 850.4" xml:space="preserve">
<g>
	<path fill="#192A56" d="M839.9,3064.1H178.5c-51.5,0-93.3-41.8-93.3-93.3V2307c0-51.5,41.8-93.3,93.3-93.3h661.4
		c51.5,0,93.3,41.8,93.3,93.3v663.8C933.2,3022.3,891.4,3064.1,839.9,3064.1z"/>
</g>
<g>
	<g>
		<path fill="#FAD02E" d="M271,2676.2c-5.4,0-9.8,4.4-9.8,9.8s4.4,9.8,9.8,9.8c5.4,0,9.8-4.4,9.8-9.8S276.5,2676.2,271,2676.2z
			 M271,2694.4c-4.6,0-8.4-3.8-8.4-8.4c0-4.6,3.7-8.4,8.4-8.4c4.6,0,8.4,3.8,8.4,8.4C279.4,2690.6,275.6,2694.4,271,2694.4z"/>
		<path fill="#FAD02E" d="M369.4,2680.2c-3.2,0-5.8,2.6-5.8,5.8c0,3.2,2.6,5.8,5.8,5.8s5.8-2.6,5.8-5.8
			C375.2,2682.8,372.6,2680.2,369.4,2680.2z M366.3,2685.5c-0.1-0.4,0.1-0.8,0.5-0.9c0.1,0,0.1,0,0.2,0c0.3,0,0.5,0.1,0.7,0.4
			l0.1,0.1c0.1,0.4-0.1,0.8-0.5,0.9C366.8,2686.1,366.4,2685.9,366.3,2685.5z M367.9,2688.7c-0.4,0-0.7-0.4-0.7-0.8
			c0-0.4,0.3-0.6,0.6-0.7l0.2,0c0.4,0,0.7,0.4,0.7,0.8C368.6,2688.4,368.3,2688.7,367.9,2688.7z M369.7,2684.2
			c-0.3,0.2-0.8,0.1-1-0.2c-0.2-0.3-0.1-0.8,0.2-1c0.1-0.1,0.3-0.1,0.4-0.1c0.2,0,0.5,0.1,0.6,0.3c0.2,0.3,0.1,0.7-0.1,0.9
			L369.7,2684.2z M371.4,2688.2c-0.1,0.4-0.6,0.6-1,0.4c-0.3-0.1-0.5-0.5-0.5-0.8l0-0.1c0.1-0.3,0.4-0.5,0.7-0.5
			c0.1,0,0.2,0,0.3,0.1C371.3,2687.4,371.5,2687.8,371.4,2688.2z M372.2,2685.7c-0.2,0.3-0.6,0.4-0.9,0.2l-0.1-0.1
			c-0.3-0.3-0.4-0.7-0.1-1.1c0.1-0.2,0.4-0.3,0.6-0.3c0.2,0,0.3,0,0.5,0.2C372.4,2684.9,372.4,2685.4,372.2,2685.7z"/>
		<path fill="#FAD02E" d="M369.3,2676.2c-5.4,0-9.8,4.4-9.8,9.8s4.4,9.8,9.8,9.8c5.4,0,9.8-4.4,9.8-9.8S374.7,2676.2,369.3,2676.2z
			 M369.4,2694.4c-4.6,0-8.4-3.8-8.4-8.4c0-4.6,3.7-8.4,8.4-8.4s8.4,3.8,8.4,8.4C377.7,2690.6,374,2694.4,369.4,2694.4z"/>
		<path fill="#FAD02E" d="M271,2680.2c-3.2,0-5.8,2.6-5.8,5.8c0,3.2,2.6,5.8,5.8,5.8c3.2,0,5.8-2.6,5.8-5.8
			C276.8,2682.8,274.2,2680.2,271,2680.2z M268,2685.5c-0.1-0.4,0.1-0.8,0.5-0.9c0.1,0,0.1,0,0.2,0c0.3,0,0.5,0.1,0.7,0.4l0.1,0.1
			c0.1,0.4-0.1,0.8-0.5,0.9C268.6,2686.1,268.2,2685.9,268,2685.5z M269.6,2688.7c-0.4,0-0.7-0.4-0.7-0.8c0-0.4,0.3-0.6,0.6-0.7
			l0.2,0c0.4,0,0.7,0.4,0.7,0.8C270.4,2688.4,270,2688.7,269.6,2688.7z M271.5,2684.2c-0.3,0.2-0.8,0.1-1-0.2
			c-0.2-0.3-0.1-0.8,0.2-1c0.1-0.1,0.3-0.1,0.4-0.1c0.2,0,0.5,0.1,0.6,0.3c0.2,0.3,0.1,0.7-0.1,0.9L271.5,2684.2z M273.1,2688.2
			c-0.1,0.4-0.6,0.6-1,0.4c-0.3-0.1-0.5-0.5-0.5-0.8l0-0.1c0.1-0.3,0.4-0.5,0.7-0.5c0.1,0,0.2,0,0.3,0.1
			C273.1,2687.4,273.3,2687.8,273.1,2688.2z M273.9,2685.7c-0.2,0.3-0.6,0.4-0.9,0.2l-0.1-0.1c-0.3-0.3-0.4-0.7-0.1-1.1
			c0.1-0.2,0.4-0.3,0.6-0.3c0.2,0,0.3,0,0.5,0.2C274.1,2684.9,274.2,2685.4,273.9,2685.7z"/>
		<path fill="#FAD02E" d="M472,2493.5H170.3c-15.2,0-27.4,12.3-27.4,27.4v235.9c0,15.2,12.3,27.4,27.4,27.4H472
			c15.2,0,27.4-12.3,27.4-27.4v-235.9C499.5,2505.8,487.2,2493.5,472,2493.5z M316.9,2584.5v-2.1l-4.2-6.6h14.5l-3.9,6.6v2.1
			c44.8,1.8,78.5,38.2,78.5,80.9H240.1C240.1,2622.7,274.2,2586.3,316.9,2584.5z M271,2702.9c-9.3,0-16.9-7.6-16.9-16.9
			c0-9.3,7.6-16.9,16.9-16.9c9.3,0,16.9,7.6,16.9,16.9C287.9,2695.3,280.4,2702.9,271,2702.9z M369.3,2702.9
			c-9.3,0-16.9-7.6-16.9-16.9c0-9.3,7.6-16.9,16.9-16.9c9.3,0,16.9,7.6,16.9,16.9C386.2,2695.3,378.6,2702.9,369.3,2702.9z
			 M403.5,2671.8H403c-0.4,2.5-2.5,4.4-5,4.4h-13.2c-3.2-5.2-8.9-8.6-15.4-8.6c-6.5,0-12.2,3.4-15.4,8.6h-67.6
			c-3.2-5.2-8.9-8.6-15.4-8.6c-6.5,0-12.2,3.4-15.4,8.6h-11.7c-2.6,0-4.7-1.9-5-4.4h-0.5l-13.1-5.6h191.1L403.5,2671.8z M417.2,2648
			h-8.7l-0.5-2.4h9.1V2648z M417.2,2622.7h-18l-1.4-2.4h19.5V2622.7z M417.2,2598.8H379l-2.8-2.4h40.9V2598.8z"/>
		<path fill="#FAD02E" d="M259.5,2648.3h9.5c0,0,4.2-19.2,29.4-47.8C298.4,2600.5,266.9,2616.3,259.5,2648.3z"/>
	</g>
	<g id="SvgjsG1011_5_" transform="matrix(5.143383965901854,0,0,5.143383965901854,150.0000000574818,-37.2528389005427)">
		<path fill="#FAD02E" d="M84.9,512.1c-0.1-2.2-0.1-4.4,0.3-6.7c1.2-0.1,2.3,0.1,3.4,0.5c1.3,0.6,1.9,1.5,1.8,2.7
			C90.1,511.6,88.3,512.7,84.9,512.1L84.9,512.1z M75,498.8l-0.2,0l0.1,0.1h-0.1c1.5,6.2,2.1,12.9,1.7,20c-0.1,2.4-0.4,4.8-0.7,7.1
			c-0.1,0.8-0.3,1.6-0.4,2.3c-0.1,0.6-0.2,1-0.3,1.3h11.3c-0.9-2.6-1.4-5.8-1.6-9.8c6,0.9,10.3-0.4,12.8-4c0.9-1.3,1.5-2.8,1.9-4.6
			c0.3-1.3,0.3-2.7,0.2-4c-0.5-5.7-4.4-8.5-11.7-8.5L75,498.8L75,498.8z M101.4,529.7c1.6-13.6,1.6-23.8,0-30.5c0-0.1,0-0.1,0-0.2
			l0-0.1l0,0h11.6c-1.9,9.9-2.6,17.4-2.1,22.5s0.9,7.9,1,8.2L101.4,529.7L101.4,529.7z M135.9,521.3c-2.4,1.4-4.6,1.3-6.9-0.1
			c-2.1-1.4-3.3-3.4-3.9-6.1c-0.3-1.8-0.2-3.5,0.3-5.1c0.6-1.8,1.5-3.2,2.9-4c0.6-0.4,1.1-0.7,1.6-0.8c0.6-0.3,1.2-0.4,1.7-0.4
			c0.5,0,1,0.1,1.5,0.3c0.6,0.2,1,0.5,1.2,0.9c0.2,0.3,0.3,0.6,0.3,0.8l0,0v0c-0.5-0.9-1.2-1.3-2.1-1.2c-1.1,0.1-1.9,0.6-2.3,1.7
			c-0.2,0.6-0.2,1.2,0.2,1.9c0.3,0.7,0.8,1.1,1.3,1.5c1.1,0.6,2.2,0.9,3.4,0.7c1.3-0.1,2.3-0.7,3.1-1.6c0.8-0.9,1.2-2.3,1.4-4.2
			c0.2-2.8-0.9-4.8-3.4-6.1c-2-1-4.5-1.4-7.6-1.3c-2.5,0.2-4.8,1-6.9,2.5c-2.2,1.6-3.9,3.5-5.2,5.9c-1.3,2.4-2,4.9-2,7.4
			c0,2.8,0.5,5.2,1.4,7.5c1.1,2.5,2.7,4.5,4.8,5.9c3,2.1,6.5,3,10.5,2.9c1.9-0.1,3.8-0.5,5.4-1.3c1.9-0.9,3.2-2.2,4-3.8
			c0.4-1,0.6-2.2,0.5-3.6c-0.1-1.5-0.5-2.7-1.1-3.5C138.3,519.5,137,520.7,135.9,521.3L135.9,521.3z"/>
	</g>
	<g id="SvgjsG1012_5_" transform="matrix(1.072958480761344,0,0,1.072958480761344,148.84120479473137,95.54078791977588)">
		<path fill="#FAD02E" d="M360,2476.6c-0.4,0-0.6-0.2-0.6-0.6v-28.6c0-0.4,0.2-0.6,0.6-0.6h13.6c0.2,0,0.4,0,0.6,0.1
			s0.4,0.2,0.6,0.4l2.4,2.4c0.2,0.3,0.4,0.5,0.4,0.7s0.1,0.3,0.1,0.4v11c0,0.4-0.2,0.8-0.5,1.1l-2.4,2.4c-0.1,0.1-0.3,0.3-0.5,0.3
			c-0.2,0.1-0.4,0.1-0.6,0.1h-9v10.3c0,0.4-0.2,0.6-0.6,0.6H360z M372.3,2459.7c0.1-0.1,0.1-0.1,0.1-0.2v-6.6c0-0.1,0-0.2-0.1-0.2
			l-0.8-0.7c-0.1-0.1-0.1-0.1-0.2-0.1h-6.8v8.6h6.8c0.1,0,0.2,0,0.3-0.1L372.3,2459.7z M398.5,2476.6c-0.2,0-0.3-0.1-0.5-0.2
			c-0.2-0.1-0.3-0.3-0.3-0.4l-1.7-5.7h-9.5l-1.7,5.7c-0.1,0.2-0.2,0.3-0.3,0.4c-0.2,0.1-0.3,0.2-0.5,0.2h-3.7
			c-0.2,0-0.3-0.1-0.5-0.2c-0.2-0.1-0.2-0.3-0.1-0.4l8.4-28.5c0.1-0.1,0.1-0.3,0.2-0.4c0.1-0.1,0.2-0.2,0.4-0.2h5
			c0.3,0,0.5,0.2,0.6,0.6l8.4,28.6c0.1,0.2,0,0.3-0.1,0.4c-0.1,0.1-0.3,0.2-0.5,0.2H398.5z M391.3,2454.2l-3.2,10.9h6.4
			L391.3,2454.2z M420.4,2476.6c-0.2,0-0.3-0.1-0.5-0.2c-0.1-0.1-0.2-0.3-0.3-0.4l-4.2-10.4h-4.8v10.4c0,0.4-0.2,0.6-0.6,0.6h-3.9
			c-0.4,0-0.6-0.2-0.6-0.6v-28.6c0-0.4,0.2-0.6,0.6-0.6h13.6c0.1,0,0.2,0,0.3,0c0.1,0,0.2,0.1,0.4,0.1s0.3,0.1,0.4,0.3l2.4,2.4
			c0.2,0.2,0.4,0.5,0.4,0.8c0,0.1,0,0.2,0,0.3v10.8c0,0.5-0.2,0.9-0.5,1.2l-2.5,2.5l4.3,10.6c0.1,0.1,0,0.3,0,0.4
			c-0.1,0.1-0.2,0.2-0.5,0.2H420.4L420.4,2476.6z M418.4,2459.7c0.1-0.1,0.1-0.2,0.1-0.3v-6.4c0-0.1,0-0.2-0.1-0.2l-0.7-0.7
			c-0.1-0.1-0.2-0.1-0.3-0.1h-6.7v8.6h6.7c0.1,0,0.2,0,0.3-0.1L418.4,2459.7z M433.6,2476.6c-0.1,0-0.3,0-0.4-0.1
			c-0.1-0.1-0.1-0.2-0.1-0.4V2452h-6c-0.4,0-0.6-0.2-0.6-0.6v-3.9c0-0.4,0.2-0.6,0.6-0.6h17.1c0.1,0,0.3,0.1,0.4,0.2
			s0.2,0.3,0.2,0.4v3.9c0,0.2-0.1,0.3-0.2,0.4s-0.3,0.2-0.4,0.2h-6v24.2c0,0.3-0.2,0.5-0.5,0.5H433.6z M461.3,2476.6
			c-0.2,0-0.3-0.1-0.5-0.2c-0.2-0.1-0.3-0.3-0.3-0.4l-7.5-18.4v18.4c0,0.4-0.2,0.6-0.6,0.6h-3.9c-0.4,0-0.6-0.2-0.6-0.6v-28.6
			c0-0.4,0.2-0.6,0.6-0.6h5.2c0.3,0,0.5,0.2,0.6,0.6l6.6,17.1l0.3,1.2v-18.3c0-0.4,0.2-0.6,0.6-0.6h3.9c0.4,0,0.6,0.2,0.6,0.6v28.6
			c0,0.4-0.2,0.6-0.6,0.6H461.3z M471.6,2476.6c-0.4,0-0.6-0.2-0.6-0.6v-28.6c0-0.4,0.2-0.6,0.6-0.6h15.5c0.4,0,0.6,0.2,0.6,0.6v3.9
			c0,0.1-0.1,0.3-0.2,0.4c-0.1,0.1-0.3,0.2-0.4,0.2h-11v7.2h8.7c0.1,0,0.3,0.1,0.4,0.2s0.2,0.3,0.2,0.4v3.9c0,0.2-0.1,0.3-0.2,0.4
			s-0.3,0.2-0.4,0.2h-8.7v7.2h11c0.4,0,0.6,0.2,0.6,0.6v3.9c0,0.4-0.2,0.6-0.6,0.6H471.6z M506,2476.6c-0.2,0-0.3-0.1-0.5-0.2
			c-0.1-0.1-0.2-0.3-0.3-0.4l-4.2-10.4h-4.8v10.4c0,0.4-0.2,0.6-0.6,0.6h-3.9c-0.4,0-0.6-0.2-0.6-0.6v-28.6c0-0.4,0.2-0.6,0.6-0.6
			h13.6c0.1,0,0.2,0,0.3,0c0.1,0,0.2,0.1,0.4,0.1s0.3,0.1,0.4,0.3l2.4,2.4c0.2,0.2,0.4,0.5,0.4,0.8c0,0.1,0,0.2,0,0.3v10.8
			c0,0.5-0.2,0.9-0.5,1.2l-2.5,2.5l4.3,10.6c0.1,0.1,0,0.3,0,0.4c-0.1,0.1-0.2,0.2-0.5,0.2H506L506,2476.6z M503.9,2459.7
			c0.1-0.1,0.1-0.2,0.1-0.3v-6.4c0-0.1,0-0.2-0.1-0.2l-0.7-0.7c-0.1-0.1-0.2-0.1-0.3-0.1h-6.7v8.6h6.7c0.1,0,0.2,0,0.3-0.1
			L503.9,2459.7z M529.3,2476.2c-0.2,0.2-0.4,0.3-0.6,0.3c-0.2,0.1-0.4,0.1-0.6,0.1h-11c-0.3,0-0.5,0-0.7-0.1
			c-0.1-0.1-0.3-0.2-0.4-0.4l-2.4-2.4c-0.2-0.2-0.3-0.4-0.4-0.5s-0.1-0.3-0.1-0.4v-4.4c0-0.1,0.1-0.3,0.2-0.4
			c0.1-0.1,0.3-0.2,0.4-0.2h3.9c0.2,0,0.3,0.1,0.4,0.2c0.1,0.1,0.2,0.3,0.2,0.4v3.1h7.6c0.1,0,0.1,0,0.2-0.1l0.7-0.7
			c0.1-0.1,0.1-0.2,0.1-0.3v-5c0-0.1,0-0.2-0.1-0.3l-0.7-0.7c-0.1-0.1-0.2-0.1-0.3-0.1H517c-0.1,0-0.2,0-0.4-0.1
			c-0.2-0.1-0.4-0.2-0.6-0.4l-2.4-2.4c-0.2-0.2-0.3-0.3-0.3-0.5s-0.1-0.4-0.1-0.5v-9.6c0-0.1,0-0.3,0.1-0.5s0.2-0.4,0.4-0.6l2.4-2.4
			c0.1-0.1,0.3-0.2,0.4-0.3c0.1-0.1,0.4-0.1,0.7-0.1h11c0.2,0,0.4,0,0.6,0.1c0.2,0.1,0.4,0.2,0.5,0.3l2.4,2.4
			c0.2,0.3,0.4,0.5,0.4,0.6s0.1,0.3,0.1,0.5v4.5c0,0.4-0.2,0.6-0.6,0.6h-3.9c-0.4,0-0.6-0.2-0.6-0.6v-3.3h-7.5c-0.1,0-0.2,0-0.3,0.1
			l-0.7,0.7c-0.1,0.1-0.1,0.2-0.1,0.3v4.9c0,0.1,0,0.2,0.1,0.3l0.7,0.7c0.1,0.1,0.2,0.1,0.3,0.1h8.7c0.5,0,0.8,0.1,1.1,0.4l2.4,2.4
			c0.3,0.3,0.5,0.7,0.5,1.1v9.6c0,0.4-0.2,0.8-0.5,1.1L529.3,2476.2z M547.3,2476.6c-0.4,0-0.6-0.2-0.6-0.6v-28.6
			c0-0.4,0.2-0.6,0.6-0.6h3.9c0.4,0,0.6,0.2,0.6,0.6v28.6c0,0.4-0.2,0.6-0.6,0.6H547.3z M569.8,2476.6c-0.2,0-0.3-0.1-0.5-0.2
			s-0.3-0.3-0.3-0.4l-7.5-18.4v18.4c0,0.4-0.2,0.6-0.6,0.6H557c-0.4,0-0.6-0.2-0.6-0.6v-28.6c0-0.4,0.2-0.6,0.6-0.6h5.2
			c0.3,0,0.5,0.2,0.6,0.6l6.6,17.1l0.3,1.2v-18.3c0-0.4,0.2-0.6,0.6-0.6h3.9c0.4,0,0.6,0.2,0.6,0.6v28.6c0,0.4-0.2,0.6-0.6,0.6
			H569.8z M605.6,2476.2c-0.1,0.1-0.3,0.2-0.4,0.3c-0.1,0.1-0.4,0.1-0.7,0.1h-11.1c-0.2,0-0.3,0-0.5-0.1c-0.1,0-0.3-0.2-0.5-0.4
			l-2.4-2.4c-0.2-0.2-0.3-0.3-0.3-0.5s-0.1-0.3-0.1-0.5v-22c0-0.5,0.1-0.8,0.4-1.1l2.4-2.4c0.2-0.2,0.3-0.3,0.5-0.3
			c0.2-0.1,0.4-0.1,0.6-0.1h11c0.2,0,0.4,0,0.6,0.1c0.2,0.1,0.3,0.2,0.5,0.3l2.4,2.4c0.2,0.2,0.3,0.3,0.4,0.4
			c0.1,0.1,0.1,0.3,0.1,0.7v4.6c0,0.4-0.2,0.6-0.6,0.6h-3.9c-0.4,0-0.6-0.2-0.6-0.6v-2.3c0-0.1,0-0.2-0.1-0.3l-0.7-0.7
			c-0.1-0.1-0.2-0.1-0.3-0.1h-6.4c-0.1,0-0.3,0-0.3,0.1l-0.7,0.7c-0.1,0.1-0.1,0.2-0.1,0.3v17.5c0,0.2,0,0.3,0.1,0.4l0.6,0.6h7.3
			l0.6-0.6c0.1-0.1,0.1-0.2,0.1-0.3v-2.4c0-0.2,0.1-0.3,0.2-0.4c0.1-0.1,0.3-0.2,0.4-0.2h3.9c0.2,0,0.3,0.1,0.4,0.2
			c0.1,0.1,0.2,0.3,0.2,0.4v4.5c0,0.2,0,0.4-0.1,0.5c-0.1,0.1-0.2,0.3-0.4,0.5L605.6,2476.2z M629.2,2476.6c-0.2,0-0.3-0.1-0.5-0.2
			c-0.2-0.1-0.3-0.3-0.3-0.4l-1.7-5.7h-9.5l-1.7,5.7c-0.1,0.2-0.2,0.3-0.3,0.4c-0.2,0.1-0.3,0.2-0.5,0.2H611c-0.2,0-0.3-0.1-0.5-0.2
			c-0.2-0.1-0.2-0.3-0.1-0.4l8.4-28.5c0.1-0.1,0.1-0.3,0.2-0.4c0.1-0.1,0.2-0.2,0.4-0.2h5c0.3,0,0.5,0.2,0.6,0.6l8.4,28.6
			c0.1,0.2,0,0.3-0.1,0.4s-0.3,0.2-0.5,0.2H629.2z M622,2454.2l-3.2,10.9h6.4L622,2454.2z M651.1,2476.6c-0.2,0-0.3-0.1-0.5-0.2
			c-0.1-0.1-0.2-0.3-0.3-0.4l-4.2-10.4h-4.8v10.4c0,0.4-0.2,0.6-0.6,0.6h-3.9c-0.4,0-0.6-0.2-0.6-0.6v-28.6c0-0.4,0.2-0.6,0.6-0.6
			h13.6c0.1,0,0.2,0,0.3,0c0.1,0,0.2,0.1,0.4,0.1c0.1,0,0.3,0.1,0.4,0.3l2.4,2.4c0.2,0.2,0.4,0.5,0.4,0.8c0,0.1,0,0.2,0,0.3v10.8
			c0,0.5-0.2,0.9-0.5,1.2l-2.5,2.5l4.3,10.6c0.1,0.1,0,0.3,0,0.4c-0.1,0.1-0.2,0.2-0.5,0.2H651.1L651.1,2476.6z M649.1,2459.7
			c0.1-0.1,0.1-0.2,0.1-0.3v-6.4c0-0.1,0-0.2-0.1-0.2l-0.7-0.7c-0.1-0.1-0.2-0.1-0.3-0.1h-6.7v8.6h6.7c0.1,0,0.2,0,0.3-0.1
			L649.1,2459.7z M659.2,2476.6c-0.4,0-0.6-0.2-0.6-0.6v-28.6c0-0.4,0.2-0.6,0.6-0.6h15.5c0.4,0,0.6,0.2,0.6,0.6v3.9
			c0,0.1-0.1,0.3-0.2,0.4c-0.1,0.1-0.3,0.2-0.4,0.2h-11v7.2h8.7c0.1,0,0.3,0.1,0.4,0.2c0.1,0.1,0.2,0.3,0.2,0.4v3.9
			c0,0.2-0.1,0.3-0.2,0.4c-0.1,0.1-0.3,0.2-0.4,0.2h-8.7v7.2h11c0.4,0,0.6,0.2,0.6,0.6v3.9c0,0.4-0.2,0.6-0.6,0.6H659.2z"/>
	</g>
</g>
</svg>
