<?xml version="1.0" encoding="utf-8"?>
<!-- Generator: Adobe Illustrator 18.0.0, SVG Export Plug-In . SVG Version: 6.00 Build 0)  -->
<!DOCTYPE svg PUBLIC "-//W3C//DTD SVG 1.1//EN" "http://www.w3.org/Graphics/SVG/1.1/DTD/svg11.dtd">
<svg version="1.1" id="hgcfdghg" xmlns="http://www.w3.org/2000/svg" xmlns:xlink="http://www.w3.org/1999/xlink" x="0px" y="0px"
	 viewBox="1140.8 2213.7 850.4 850.4" enable-background="new 1140.8 2213.7 850.4 850.4" xml:space="preserve">
<g>
	<path fill="#192A56" d="M1896.7,3064.1h-661.4c-51.5,0-93.3-41.8-93.3-93.3V2307c0-51.5,41.8-93.3,93.3-93.3h661.4
		c51.5,0,93.3,41.8,93.3,93.3v663.8C1990,3022.3,1948.2,3064.1,1896.7,3064.1z"/>
</g>
<g>
	<g>
		<path fill="#FAD02E" d="M1495.1,2526.9c-7.7,0-13.9,6.2-13.9,13.9c0,7.7,6.2,13.9,13.9,13.9s13.9-6.2,13.9-13.9
			C1509,2533.1,1502.8,2526.9,1495.1,2526.9z M1495.1,2552.6c-6.5,0-11.8-5.3-11.8-11.8c0-6.5,5.3-11.8,11.8-11.8
			s11.8,5.3,11.8,11.8C1506.9,2547.2,1501.6,2552.6,1495.1,2552.6z"/>
		<path fill="#FAD02E" d="M1634.3,2532.6c-4.5,0-8.2,3.7-8.2,8.1c0,4.5,3.7,8.2,8.2,8.2c4.5,0,8.2-3.7,8.2-8.2
			C1642.4,2536.2,1638.8,2532.6,1634.3,2532.6z M1629.9,2540c-0.2-0.6,0.2-1.1,0.7-1.3c0.1,0,0.2,0,0.3,0c0.4,0,0.8,0.2,1,0.6
			l0.1,0.2c0.2,0.6-0.2,1.2-0.7,1.3C1630.6,2540.8,1630,2540.5,1629.9,2540z M1632.1,2544.5c-0.6,0-1-0.5-1-1.1c0-0.5,0.4-0.9,0.9-1
			l0.2,0c0.6,0,1,0.5,1,1.1C1633.2,2544.1,1632.7,2544.5,1632.1,2544.5z M1634.7,2538.2c-0.5,0.3-1.2,0.2-1.5-0.3
			c-0.3-0.5-0.2-1.1,0.3-1.5c0.2-0.1,0.4-0.2,0.6-0.2c0.3,0,0.7,0.2,0.9,0.5c0.3,0.4,0.2,1-0.1,1.3L1634.7,2538.2z M1637.1,2543.8
			c-0.2,0.5-0.8,0.8-1.4,0.6c-0.5-0.2-0.8-0.7-0.7-1.2l0.1-0.2c0.2-0.4,0.5-0.7,0.9-0.7c0.1,0,0.3,0,0.4,0.1
			C1637,2542.7,1637.3,2543.3,1637.1,2543.8z M1638.2,2540.4c-0.3,0.4-0.9,0.5-1.3,0.3l-0.2-0.1c-0.5-0.4-0.5-1-0.2-1.5
			c0.2-0.3,0.5-0.4,0.8-0.4c0.2,0,0.5,0.1,0.7,0.2C1638.5,2539.2,1638.5,2539.9,1638.2,2540.4z"/>
		<path fill="#FAD02E" d="M1634.1,2526.9c-7.7,0-13.9,6.2-13.9,13.9c0,7.7,6.2,13.9,13.9,13.9c7.7,0,13.9-6.2,13.9-13.9
			C1648,2533.1,1641.8,2526.9,1634.1,2526.9z M1634.3,2552.6c-6.5,0-11.8-5.3-11.8-11.8c0-6.5,5.3-11.8,11.8-11.8
			s11.8,5.3,11.8,11.8C1646.1,2547.2,1640.8,2552.6,1634.3,2552.6z"/>
		<path fill="#FAD02E" d="M1495.1,2532.6c-4.5,0-8.2,3.7-8.2,8.1c0,4.5,3.7,8.2,8.2,8.2c4.5,0,8.2-3.7,8.2-8.2
			C1503.3,2536.2,1499.6,2532.6,1495.1,2532.6z M1490.9,2540c-0.2-0.6,0.2-1.1,0.7-1.3c0.1,0,0.2,0,0.3,0c0.4,0,0.8,0.2,1,0.6
			l0.1,0.2c0.2,0.6-0.2,1.2-0.7,1.3C1491.6,2540.8,1491,2540.5,1490.9,2540z M1493.1,2544.5c-0.6,0-1-0.5-1-1.1c0-0.5,0.4-0.9,0.9-1
			l0.2,0c0.6,0,1,0.5,1,1.1C1494.1,2544.1,1493.6,2544.5,1493.1,2544.5z M1495.7,2538.2c-0.5,0.3-1.2,0.2-1.5-0.3
			c-0.3-0.5-0.2-1.1,0.3-1.5c0.2-0.1,0.4-0.2,0.6-0.2c0.3,0,0.7,0.2,0.9,0.5c0.3,0.4,0.2,1-0.1,1.3L1495.7,2538.2z M1498.1,2543.8
			c-0.2,0.5-0.8,0.8-1.4,0.6c-0.5-0.2-0.8-0.7-0.7-1.2l0.1-0.2c0.2-0.4,0.5-0.7,0.9-0.7c0.1,0,0.3,0,0.4,0.1
			C1498,2542.7,1498.3,2543.3,1498.1,2543.8z M1499.2,2540.4c-0.3,0.4-0.9,0.5-1.3,0.3l-0.2-0.1c-0.5-0.4-0.5-1-0.2-1.5
			c0.2-0.3,0.5-0.4,0.8-0.4c0.2,0,0.5,0.1,0.7,0.2C1499.4,2539.2,1499.5,2539.9,1499.2,2540.4z"/>
		<path fill="#FAD02E" d="M1779.5,2268.4h-427c-21.4,0-38.8,17.4-38.8,38.8V2641c0,21.4,17.4,38.8,38.8,38.8h427
			c21.4,0,38.8-17.4,38.8-38.8v-333.8C1818.3,2285.7,1800.9,2268.4,1779.5,2268.4z M1560,2397.2v-3l-5.9-9.3h20.5l-5.5,9.3v3
			c63.4,2.5,111,54.1,111,114.4h-228.8C1451.3,2451.2,1499.6,2399.6,1560,2397.2z M1495.1,2564.6c-13.2,0-23.9-10.7-23.9-23.9
			c0-13.2,10.7-23.9,23.9-23.9c13.2,0,23.9,10.7,23.9,23.9C1519,2553.9,1508.3,2564.6,1495.1,2564.6z M1634.1,2564.6
			c-13.2,0-23.9-10.7-23.9-23.9c0-13.2,10.7-23.9,23.9-23.9c13.2,0,23.9,10.7,23.9,23.9C1658,2553.9,1647.3,2564.6,1634.1,2564.6z
			 M1682.6,2520.7h-0.8c-0.5,3.5-3.5,6.2-7.1,6.2H1656c-4.5-7.3-12.6-12.2-21.8-12.2c-9.2,0-17.3,4.9-21.8,12.2h-95.7
			c-4.5-7.3-12.6-12.2-21.8-12.2s-17.3,4.9-21.8,12.2h-16.5c-3.6,0-6.6-2.7-7.1-6.2h-0.8l-18.6-8h270.4L1682.6,2520.7z
			 M1701.9,2486.9h-12.3l-0.7-3.3h12.9V2486.9z M1701.9,2451.2h-25.5l-2-3.3h27.5V2451.2z M1701.9,2417.3h-53.9l-4-3.3h57.9V2417.3z
			"/>
		<path fill="#FAD02E" d="M1478.7,2487.4h13.5c0,0,5.9-27.2,41.7-67.7C1533.9,2419.7,1489.3,2442.1,1478.7,2487.4z"/>
	</g>
	<g>
		<g id="SvgjsG1011_6_" transform="matrix(5.143383965901854,0,0,5.143383965901854,150.0000000574818,-37.2528389005427)">
			<path fill="#FAD02E" d="M247.6,555.7c-0.2-2.6-0.1-5.3,0.3-8.1c1.4-0.1,2.8,0.1,4.1,0.6c1.6,0.7,2.3,1.7,2.2,3.2
				C253.9,555.1,251.7,556.5,247.6,555.7L247.6,555.7z M235.6,539.8l-0.2,0l0.1,0.1h-0.2c1.8,7.5,2.5,15.5,2.1,24.1
				c-0.2,2.9-0.5,5.8-0.9,8.5c-0.2,1-0.3,1.9-0.5,2.8c-0.1,0.7-0.3,1.2-0.4,1.6h13.6c-1.1-3.1-1.7-7-1.9-11.8
				c7.3,1.1,12.4-0.5,15.4-4.8c1.1-1.6,1.8-3.4,2.2-5.5c0.3-1.6,0.4-3.2,0.3-4.8c-0.6-6.8-5.3-10.3-14.1-10.3L235.6,539.8
				L235.6,539.8z M267.4,576.9c1.9-16.4,1.9-28.7,0-36.7c0-0.1,0-0.2,0-0.2l0-0.1l0,0h14c-2.3,11.9-3.2,21-2.5,27.2
				c0.7,6.2,1.1,9.5,1.2,9.8L267.4,576.9L267.4,576.9z M309.1,566.9c-2.8,1.7-5.6,1.6-8.3-0.2c-2.5-1.6-4-4.1-4.6-7.4
				c-0.4-2.1-0.3-4.2,0.3-6.2c0.7-2.2,1.9-3.8,3.5-4.8c0.7-0.5,1.4-0.8,1.9-1c0.8-0.3,1.4-0.5,2.1-0.5c0.7,0,1.3,0.1,1.8,0.3
				c0.7,0.3,1.2,0.6,1.5,1.1c0.2,0.4,0.3,0.7,0.3,1l0,0v0c-0.6-1-1.4-1.5-2.6-1.5c-1.4,0.1-2.3,0.7-2.8,2c-0.3,0.7-0.2,1.5,0.2,2.3
				c0.4,0.8,0.9,1.4,1.6,1.8c1.3,0.8,2.7,1,4.1,0.9c1.5-0.2,2.8-0.8,3.7-2c0.9-1.1,1.5-2.8,1.7-5c0.3-3.3-1.1-5.8-4-7.3
				c-2.4-1.2-5.5-1.7-9.2-1.5c-3,0.2-5.8,1.2-8.4,3c-2.6,1.9-4.7,4.3-6.3,7.1c-1.6,2.9-2.4,5.9-2.4,8.9c0,3.3,0.6,6.3,1.7,9
				c1.3,3,3.2,5.4,5.8,7.1c3.6,2.5,7.9,3.6,12.6,3.5c2.3-0.1,4.5-0.6,6.5-1.6c2.3-1.1,3.9-2.7,4.8-4.6c0.5-1.2,0.7-2.6,0.6-4.4
				c-0.1-1.8-0.6-3.2-1.3-4.3C312,564.7,310.3,566.1,309.1,566.9L309.1,566.9z"/>
		</g>
		<g id="SvgjsG1012_6_" transform="matrix(1.072958480761344,0,0,1.072958480761344,148.84120479473137,95.54078791977588)">
			<path fill="#FAD02E" d="M1130,2715.8c-0.5,0-0.7-0.2-0.7-0.7v-34.5c0-0.5,0.2-0.7,0.7-0.7h16.4c0.2,0,0.5,0,0.7,0.1
				c0.2,0.1,0.4,0.2,0.7,0.4l2.9,2.9c0.3,0.3,0.4,0.6,0.5,0.8c0.1,0.2,0.1,0.4,0.1,0.5v13.2c0,0.5-0.2,1-0.6,1.3l-2.9,2.9
				c-0.2,0.2-0.4,0.3-0.6,0.4c-0.2,0.1-0.5,0.2-0.8,0.2h-10.9v12.4c0,0.5-0.2,0.7-0.7,0.7H1130z M1144.8,2695.4
				c0.1-0.1,0.1-0.1,0.1-0.2v-7.9c0-0.1,0-0.2-0.1-0.3l-0.9-0.9c-0.1-0.1-0.2-0.1-0.3-0.1h-8.2v10.3h8.2c0.1,0,0.2,0,0.3-0.1
				L1144.8,2695.4z M1176.4,2715.8c-0.2,0-0.4-0.1-0.6-0.2s-0.3-0.3-0.4-0.5l-2-6.9h-11.5l-2,6.9c-0.1,0.2-0.2,0.4-0.4,0.5
				s-0.4,0.2-0.6,0.2h-4.5c-0.2,0-0.4-0.1-0.6-0.2s-0.2-0.3-0.2-0.5l10.2-34.4c0.1-0.2,0.2-0.3,0.3-0.5c0.1-0.2,0.3-0.3,0.5-0.3h6.1
				c0.3,0,0.6,0.2,0.8,0.7l10.1,34.5c0.1,0.2,0,0.4-0.2,0.5c-0.2,0.2-0.4,0.2-0.6,0.2H1176.4z M1167.6,2688.7l-3.9,13.1h7.8
				L1167.6,2688.7z M1202.7,2715.8c-0.2,0-0.4-0.1-0.6-0.2c-0.2-0.2-0.3-0.3-0.4-0.5l-5.1-12.5h-5.8v12.5c0,0.5-0.2,0.7-0.7,0.7
				h-4.7c-0.5,0-0.7-0.2-0.7-0.7v-34.5c0-0.5,0.2-0.7,0.7-0.7h16.4c0.1,0,0.3,0,0.4,0.1c0.1,0,0.3,0.1,0.4,0.1s0.3,0.2,0.5,0.3
				l2.9,2.9c0.3,0.3,0.4,0.6,0.5,0.9c0,0.1,0.1,0.3,0.1,0.4v13.1c0,0.6-0.2,1.1-0.6,1.5l-3,3l5.2,12.8c0.1,0.2,0.1,0.3,0,0.5
				s-0.3,0.3-0.6,0.3H1202.7L1202.7,2715.8z M1200.3,2695.4c0.1-0.1,0.2-0.2,0.2-0.4v-7.8c0-0.1,0-0.2-0.1-0.3l-0.9-0.8
				c-0.2-0.1-0.3-0.2-0.4-0.2h-8.1v10.3h8.1c0.1,0,0.3-0.1,0.4-0.2L1200.3,2695.4z M1218.6,2715.8c-0.2,0-0.3-0.1-0.4-0.2
				c-0.1-0.1-0.2-0.3-0.2-0.4V2686h-7.2c-0.5,0-0.7-0.2-0.7-0.7v-4.7c0-0.5,0.2-0.7,0.7-0.7h20.6c0.2,0,0.3,0.1,0.5,0.2
				c0.2,0.1,0.2,0.3,0.2,0.5v4.7c0,0.2-0.1,0.4-0.2,0.5s-0.3,0.2-0.5,0.2h-7.3v29.1c0,0.4-0.2,0.6-0.6,0.6H1218.6z M1252.1,2715.8
				c-0.2,0-0.4-0.1-0.6-0.2s-0.3-0.3-0.4-0.5l-9-22.2v22.2c0,0.5-0.2,0.7-0.7,0.7h-4.7c-0.5,0-0.7-0.2-0.7-0.7v-34.5
				c0-0.5,0.2-0.7,0.7-0.7h6.3c0.3,0,0.6,0.2,0.8,0.7l8,20.6l0.3,1.4v-22.1c0-0.5,0.2-0.7,0.7-0.7h4.7c0.5,0,0.7,0.2,0.7,0.7v34.5
				c0,0.5-0.2,0.7-0.7,0.7H1252.1z M1264.4,2715.8c-0.5,0-0.7-0.2-0.7-0.7v-34.5c0-0.5,0.2-0.7,0.7-0.7h18.7c0.5,0,0.7,0.2,0.7,0.7
				v4.7c0,0.2-0.1,0.3-0.2,0.5c-0.1,0.2-0.3,0.2-0.5,0.2h-13.2v8.7h10.4c0.2,0,0.3,0.1,0.5,0.2c0.2,0.1,0.2,0.3,0.2,0.5v4.7
				c0,0.2-0.1,0.4-0.2,0.5s-0.3,0.2-0.5,0.2h-10.4v8.7h13.2c0.5,0,0.7,0.2,0.7,0.7v4.7c0,0.5-0.2,0.7-0.7,0.7H1264.4z
				 M1305.9,2715.8c-0.2,0-0.4-0.1-0.6-0.2c-0.2-0.2-0.3-0.3-0.4-0.5l-5.1-12.5h-5.8v12.5c0,0.5-0.2,0.7-0.7,0.7h-4.7
				c-0.5,0-0.7-0.2-0.7-0.7v-34.5c0-0.5,0.2-0.7,0.7-0.7h16.4c0.1,0,0.3,0,0.4,0.1c0.1,0,0.3,0.1,0.4,0.1s0.3,0.2,0.5,0.3l2.9,2.9
				c0.3,0.3,0.4,0.6,0.5,0.9c0,0.1,0.1,0.3,0.1,0.4v13.1c0,0.6-0.2,1.1-0.6,1.5l-3,3l5.2,12.8c0.1,0.2,0.1,0.3,0,0.5
				c-0.1,0.2-0.3,0.3-0.6,0.3H1305.9L1305.9,2715.8z M1303.4,2695.4c0.1-0.1,0.2-0.2,0.2-0.4v-7.8c0-0.1,0-0.2-0.1-0.3l-0.9-0.8
				c-0.2-0.1-0.3-0.2-0.4-0.2h-8.1v10.3h8.1c0.1,0,0.3-0.1,0.4-0.2L1303.4,2695.4z M1333.9,2715.3c-0.2,0.2-0.4,0.3-0.7,0.4
				c-0.2,0.1-0.5,0.1-0.7,0.1h-13.3c-0.4,0-0.6,0-0.8-0.1c-0.2-0.1-0.3-0.2-0.5-0.4l-2.9-2.9c-0.2-0.2-0.4-0.5-0.4-0.6
				c-0.1-0.2-0.1-0.4-0.1-0.5v-5.2c0-0.2,0.1-0.3,0.2-0.5c0.1-0.2,0.3-0.2,0.5-0.2h4.7c0.2,0,0.4,0.1,0.5,0.2
				c0.1,0.2,0.2,0.3,0.2,0.5v3.7h9.2c0.1,0,0.2-0.1,0.3-0.2l0.9-0.8c0.1-0.1,0.2-0.2,0.2-0.4v-6c0-0.1-0.1-0.3-0.2-0.4l-0.8-0.8
				c-0.1-0.1-0.2-0.2-0.4-0.2h-10.7c-0.1,0-0.3,0-0.5-0.1c-0.2-0.1-0.5-0.2-0.7-0.5l-2.9-2.9c-0.2-0.2-0.3-0.4-0.4-0.6
				c-0.1-0.2-0.1-0.4-0.1-0.6v-11.6c0-0.2,0-0.4,0.1-0.6c0.1-0.2,0.2-0.5,0.5-0.7l2.9-2.9c0.2-0.2,0.3-0.3,0.5-0.4
				c0.2-0.1,0.4-0.1,0.8-0.1h13.3c0.2,0,0.4,0,0.7,0.1c0.3,0.1,0.5,0.2,0.6,0.4l2.9,2.9c0.3,0.3,0.4,0.6,0.5,0.7
				c0.1,0.2,0.1,0.4,0.1,0.6v5.4c0,0.5-0.2,0.7-0.7,0.7h-4.7c-0.5,0-0.7-0.2-0.7-0.7v-4h-9.1c-0.1,0-0.3,0.1-0.4,0.2l-0.9,0.8
				c-0.1,0.1-0.2,0.2-0.2,0.4v6c0,0.1,0.1,0.3,0.2,0.4l0.9,0.9c0.1,0.1,0.2,0.2,0.4,0.2h10.4c0.5,0,1,0.2,1.3,0.5l2.9,2.9
				c0.4,0.4,0.6,0.9,0.6,1.3v11.5c0,0.5-0.2,1-0.6,1.3L1333.9,2715.3z M1355.7,2715.8c-0.5,0-0.7-0.2-0.7-0.7v-34.5
				c0-0.5,0.2-0.7,0.7-0.7h4.7c0.5,0,0.7,0.2,0.7,0.7v34.5c0,0.5-0.2,0.7-0.7,0.7H1355.7z M1382.8,2715.8c-0.2,0-0.4-0.1-0.6-0.2
				s-0.3-0.3-0.4-0.5l-9-22.2v22.2c0,0.5-0.2,0.7-0.7,0.7h-4.7c-0.5,0-0.7-0.2-0.7-0.7v-34.5c0-0.5,0.2-0.7,0.7-0.7h6.3
				c0.3,0,0.6,0.2,0.8,0.7l8,20.6l0.3,1.4v-22.1c0-0.5,0.2-0.7,0.7-0.7h4.7c0.5,0,0.7,0.2,0.7,0.7v34.5c0,0.5-0.2,0.7-0.7,0.7
				H1382.8z M1425.9,2715.3c-0.2,0.2-0.3,0.3-0.5,0.4c-0.2,0.1-0.4,0.1-0.8,0.1h-13.4c-0.2,0-0.4,0-0.6-0.1
				c-0.2-0.1-0.4-0.2-0.6-0.4l-2.9-2.9c-0.2-0.2-0.3-0.4-0.4-0.6c-0.1-0.2-0.1-0.4-0.1-0.6v-26.5c0-0.5,0.2-1,0.5-1.3l2.9-2.9
				c0.2-0.2,0.4-0.3,0.6-0.4c0.2-0.1,0.5-0.1,0.7-0.1h13.3c0.3,0,0.5,0,0.7,0.1c0.2,0.1,0.4,0.2,0.6,0.4l2.9,2.9
				c0.2,0.2,0.4,0.4,0.4,0.5c0.1,0.2,0.1,0.4,0.1,0.8v5.5c0,0.5-0.2,0.7-0.7,0.7h-4.7c-0.5,0-0.7-0.2-0.7-0.7v-2.7
				c0-0.1-0.1-0.3-0.2-0.4l-0.9-0.8c-0.2-0.1-0.3-0.2-0.3-0.2h-7.7c-0.2,0-0.3,0.1-0.4,0.2l-0.9,0.8c-0.1,0.1-0.2,0.2-0.2,0.4v21
				c0,0.2,0.1,0.4,0.2,0.5l0.7,0.7h8.7l0.7-0.7c0.1-0.1,0.2-0.2,0.2-0.4v-2.9c0-0.2,0.1-0.4,0.2-0.5c0.1-0.2,0.3-0.2,0.5-0.2h4.7
				c0.2,0,0.4,0.1,0.5,0.2c0.1,0.2,0.2,0.3,0.2,0.5v5.5c0,0.2,0,0.4-0.1,0.6s-0.2,0.4-0.5,0.6L1425.9,2715.3z M1454.4,2715.8
				c-0.2,0-0.4-0.1-0.6-0.2s-0.3-0.3-0.4-0.5l-2-6.9h-11.5l-2,6.9c-0.1,0.2-0.2,0.4-0.4,0.5s-0.4,0.2-0.6,0.2h-4.5
				c-0.2,0-0.4-0.1-0.6-0.2s-0.2-0.3-0.2-0.5l10.2-34.4c0.1-0.2,0.2-0.3,0.3-0.5s0.3-0.3,0.5-0.3h6.1c0.3,0,0.6,0.2,0.8,0.7
				l10.1,34.5c0.1,0.2,0,0.4-0.2,0.5s-0.4,0.2-0.6,0.2H1454.4z M1445.7,2688.7l-3.9,13.1h7.8L1445.7,2688.7z M1480.8,2715.8
				c-0.2,0-0.4-0.1-0.6-0.2c-0.2-0.2-0.3-0.3-0.4-0.5l-5.1-12.5h-5.8v12.5c0,0.5-0.2,0.7-0.7,0.7h-4.7c-0.5,0-0.7-0.2-0.7-0.7v-34.5
				c0-0.5,0.2-0.7,0.7-0.7h16.4c0.1,0,0.3,0,0.4,0.1c0.1,0,0.3,0.1,0.4,0.1s0.3,0.2,0.5,0.3l2.9,2.9c0.3,0.3,0.4,0.6,0.5,0.9
				c0,0.1,0.1,0.3,0.1,0.4v13.1c0,0.6-0.2,1.1-0.6,1.5l-3,3l5.2,12.8c0.1,0.2,0.1,0.3,0,0.5c-0.1,0.2-0.3,0.3-0.6,0.3H1480.8
				L1480.8,2715.8z M1478.3,2695.4c0.1-0.1,0.2-0.2,0.2-0.4v-7.8c0-0.1,0-0.2-0.1-0.3l-0.9-0.8c-0.2-0.1-0.3-0.2-0.4-0.2h-8.1v10.3
				h8.1c0.1,0,0.3-0.1,0.4-0.2L1478.3,2695.4z M1490.6,2715.8c-0.5,0-0.7-0.2-0.7-0.7v-34.5c0-0.5,0.2-0.7,0.7-0.7h18.7
				c0.5,0,0.7,0.2,0.7,0.7v4.7c0,0.2-0.1,0.3-0.2,0.5s-0.3,0.2-0.5,0.2H1496v8.7h10.4c0.2,0,0.3,0.1,0.5,0.2s0.2,0.3,0.2,0.5v4.7
				c0,0.2-0.1,0.4-0.2,0.5s-0.3,0.2-0.5,0.2H1496v8.7h13.2c0.5,0,0.7,0.2,0.7,0.7v4.7c0,0.5-0.2,0.7-0.7,0.7H1490.6z"/>
		</g>
	</g>
</g>
</svg>
